<svg width="8" height="14" viewBox="0 0 8 14" fill="none" xmlns="http://www.w3.org/2000/svg">
<path d="M0.292788 7.69471C0.105317 7.50718 9.53674e-07 7.25288 9.53674e-07 6.98771C9.53674e-07 6.72255 0.105317 6.46824 0.292788 6.28071L6.29279 0.280712C6.48139 0.0985538 6.73399 -0.00224062 6.99619 3.78026e-05C7.25839 0.00231622 7.5092 0.107485 7.69461 0.292893C7.88001 0.478301 7.98518 0.729114 7.98746 0.991311C7.98974 1.25351 7.88895 1.50611 7.70679 1.69471L2.41379 6.98771L7.70679 12.2807C7.88895 12.4693 7.98974 12.7219 7.98746 12.9841C7.98518 13.2463 7.88001 13.4971 7.69461 13.6825C7.5092 13.8679 7.25839 13.9731 6.99619 13.9754C6.73399 13.9777 6.48139 13.8769 6.29279 13.6947L0.292788 7.69471Z" fill="#1E1E1E"/>
</svg>
