<svg width="18" height="18" viewBox="0 0 18 18" fill="none" xmlns="http://www.w3.org/2000/svg">
<path d="M9.5625 1.125H3.375C2.92745 1.125 2.49822 1.30279 2.18176 1.61926C1.86529 1.93572 1.6875 2.36495 1.6875 2.8125V15.1875C1.6875 15.6351 1.86529 16.0643 2.18176 16.3807C2.49822 16.6972 2.92745 16.875 3.375 16.875H14.625C15.0726 16.875 15.5018 16.6972 15.8182 16.3807C16.1347 16.0643 16.3125 15.6351 16.3125 15.1875V9C16.3125 8.55245 16.1347 8.12322 15.8182 7.80676C15.5018 7.49029 15.0726 7.3125 14.625 7.3125H11.25V2.8125C11.25 2.36495 11.0722 1.93572 10.7557 1.61926C10.4393 1.30279 10.0101 1.125 9.5625 1.125ZM2.25 15.1875V2.8125C2.25 2.51413 2.36853 2.22798 2.5795 2.017C2.79048 1.80603 3.07663 1.6875 3.375 1.6875H9.5625C9.86087 1.6875 10.147 1.80603 10.358 2.017C10.569 2.22798 10.6875 2.51413 10.6875 2.8125V16.3125H8.4375V12.6562C8.4375 12.5817 8.40787 12.5101 8.35512 12.4574C8.30238 12.4046 8.23084 12.375 8.15625 12.375H4.78125C4.70666 12.375 4.63512 12.4046 4.58238 12.4574C4.52963 12.5101 4.5 12.5817 4.5 12.6562V16.3125H3.375C3.07663 16.3125 2.79048 16.194 2.5795 15.983C2.36853 15.772 2.25 15.4859 2.25 15.1875ZM5.0625 16.3125V12.9375H7.875V16.3125H5.0625ZM14.625 7.875C14.9234 7.875 15.2095 7.99353 15.4205 8.2045C15.6315 8.41548 15.75 8.70163 15.75 9V15.1875C15.75 15.4859 15.6315 15.772 15.4205 15.983C15.2095 16.194 14.9234 16.3125 14.625 16.3125H11.25V7.875H14.625Z" fill="black"/>
<path d="M3.65625 4.5H4.78125C4.85584 4.5 4.92738 4.47037 4.98012 4.41762C5.03287 4.36488 5.0625 4.29334 5.0625 4.21875V3.09375C5.0625 3.01916 5.03287 2.94762 4.98012 2.89488C4.92738 2.84213 4.85584 2.8125 4.78125 2.8125H3.65625C3.58166 2.8125 3.51012 2.84213 3.45738 2.89488C3.40463 2.94762 3.375 3.01916 3.375 3.09375V4.21875C3.375 4.29334 3.40463 4.36488 3.45738 4.41762C3.51012 4.47037 3.58166 4.5 3.65625 4.5ZM3.9375 3.375H4.5V3.9375H3.9375V3.375ZM3.65625 7.3125H4.78125C4.85584 7.3125 4.92738 7.28287 4.98012 7.23012C5.03287 7.17738 5.0625 7.10584 5.0625 7.03125V5.90625C5.0625 5.83166 5.03287 5.76012 4.98012 5.70738C4.92738 5.65463 4.85584 5.625 4.78125 5.625H3.65625C3.58166 5.625 3.51012 5.65463 3.45738 5.70738C3.40463 5.76012 3.375 5.83166 3.375 5.90625V7.03125C3.375 7.10584 3.40463 7.17738 3.45738 7.23012C3.51012 7.28287 3.58166 7.3125 3.65625 7.3125ZM3.9375 6.1875H4.5V6.75H3.9375V6.1875ZM4.78125 10.125C4.85584 10.125 4.92738 10.0954 4.98012 10.0426C5.03287 9.98988 5.0625 9.91834 5.0625 9.84375V8.71875C5.0625 8.64416 5.03287 8.57262 4.98012 8.51988C4.92738 8.46713 4.85584 8.4375 4.78125 8.4375H3.65625C3.58166 8.4375 3.51012 8.46713 3.45738 8.51988C3.40463 8.57262 3.375 8.64416 3.375 8.71875V9.84375C3.375 9.91834 3.40463 9.98988 3.45738 10.0426C3.51012 10.0954 3.58166 10.125 3.65625 10.125H4.78125ZM3.9375 9H4.5V9.5625H3.9375V9ZM8.15625 4.5H9.28125C9.35584 4.5 9.42738 4.47037 9.48012 4.41762C9.53287 4.36488 9.5625 4.29334 9.5625 4.21875V3.09375C9.5625 3.01916 9.53287 2.94762 9.48012 2.89488C9.42738 2.84213 9.35584 2.8125 9.28125 2.8125H8.15625C8.08166 2.8125 8.01012 2.84213 7.95738 2.89488C7.90463 2.94762 7.875 3.01916 7.875 3.09375V4.21875C7.875 4.29334 7.90463 4.36488 7.95738 4.41762C8.01012 4.47037 8.08166 4.5 8.15625 4.5ZM8.4375 3.375H9V3.9375H8.4375V3.375ZM8.15625 7.3125H9.28125C9.35584 7.3125 9.42738 7.28287 9.48012 7.23012C9.53287 7.17738 9.5625 7.10584 9.5625 7.03125V5.90625C9.5625 5.83166 9.53287 5.76012 9.48012 5.70738C9.42738 5.65463 9.35584 5.625 9.28125 5.625H8.15625C8.08166 5.625 8.01012 5.65463 7.95738 5.70738C7.90463 5.76012 7.875 5.83166 7.875 5.90625V7.03125C7.875 7.10584 7.90463 7.17738 7.95738 7.23012C8.01012 7.28287 8.08166 7.3125 8.15625 7.3125ZM8.4375 6.1875H9V6.75H8.4375V6.1875ZM8.15625 10.125H9.28125C9.35584 10.125 9.42738 10.0954 9.48012 10.0426C9.53287 9.98988 9.5625 9.91834 9.5625 9.84375V8.71875C9.5625 8.64416 9.53287 8.57262 9.48012 8.51988C9.42738 8.46713 9.35584 8.4375 9.28125 8.4375H8.15625C8.08166 8.4375 8.01012 8.46713 7.95738 8.51988C7.90463 8.57262 7.875 8.64416 7.875 8.71875V9.84375C7.875 9.91834 7.90463 9.98988 7.95738 10.0426C8.01012 10.0954 8.08166 10.125 8.15625 10.125ZM8.4375 9H9V9.5625H8.4375V9ZM13.2188 10.6875H14.3438C14.4183 10.6875 14.4899 10.6579 14.5426 10.6051C14.5954 10.5524 14.625 10.4808 14.625 10.4062V9.28125C14.625 9.20666 14.5954 9.13512 14.5426 9.08238C14.4899 9.02963 14.4183 9 14.3438 9H13.2188C13.1442 9 13.0726 9.02963 13.0199 9.08238C12.9671 9.13512 12.9375 9.20666 12.9375 9.28125V10.4062C12.9375 10.4808 12.9671 10.5524 13.0199 10.6051C13.0726 10.6579 13.1442 10.6875 13.2188 10.6875ZM13.5 9.5625H14.0625V10.125H13.5V9.5625ZM13.2188 13.5H14.3438C14.4183 13.5 14.4899 13.4704 14.5426 13.4176C14.5954 13.3649 14.625 13.2933 14.625 13.2188V12.0938C14.625 12.0192 14.5954 11.9476 14.5426 11.8949C14.4899 11.8421 14.4183 11.8125 14.3438 11.8125H13.2188C13.1442 11.8125 13.0726 11.8421 13.0199 11.8949C12.9671 11.9476 12.9375 12.0192 12.9375 12.0938V13.2188C12.9375 13.2933 12.9671 13.3649 13.0199 13.4176C13.0726 13.4704 13.1442 13.5 13.2188 13.5ZM13.5 12.375H14.0625V12.9375H13.5V12.375Z" fill="black"/>
</svg>
