<svg width="25" height="26" viewBox="0 0 25 26" fill="none" xmlns="http://www.w3.org/2000/svg">
<g filter="url(#filter0_d_57_7427)">
<path d="M5.3197 7.05298H18.6877" stroke="black" stroke-linecap="round" stroke-linejoin="round"/>
<path d="M15.033 1.5V3.96825" stroke="black" stroke-width="1.5" stroke-linecap="round" stroke-linejoin="round"/>
<path d="M8.97449 1.5V3.96825" stroke="black" stroke-width="1.5" stroke-linecap="round" stroke-linejoin="round"/>
<path fill-rule="evenodd" clip-rule="evenodd" d="M8.82822 2.18445C7.63689 2.18445 6.60525 2.51726 5.86868 3.21745C5.12824 3.92131 4.75 4.93554 4.75 6.16672V12.954C4.75 14.2005 5.12671 15.2293 5.86518 15.9451C6.60117 16.6584 7.63389 17.0001 8.82822 17.0001H12.5758C12.2708 16.7012 12.0022 16.3655 11.777 16.0001H8.82822C7.82003 16.0001 7.06364 15.714 6.56115 15.227C6.06114 14.7424 5.75 13.9982 5.75 12.954V6.16672C5.75 5.14258 6.05961 4.41567 6.55766 3.94223C7.05957 3.46511 7.81703 3.18445 8.82822 3.18445H15.1787C16.1938 3.18445 16.9507 3.46534 17.4505 3.94175C17.9464 4.41443 18.2531 5.14066 18.25 6.16518L18.25 6.16672V8.39439C18.6045 8.54057 18.9395 8.72444 19.25 8.94102V6.16762V6.16672H18.75L19.25 6.16825L19.25 6.16762C19.2536 4.93711 18.8795 3.92243 18.1405 3.21793C17.4052 2.51703 16.373 2.18445 15.1787 2.18445H8.82822Z" fill="black"/>
<path d="M16.5 9.75C15.7583 9.75 15.0333 9.96993 14.4166 10.382C13.7999 10.794 13.3193 11.3797 13.0355 12.0649C12.7516 12.7502 12.6774 13.5042 12.8221 14.2316C12.9668 14.959 13.3239 15.6272 13.8484 16.1516C14.3728 16.6761 15.041 17.0332 15.7684 17.1779C16.4958 17.3226 17.2498 17.2484 17.9351 16.9645C18.6203 16.6807 19.206 16.2001 19.618 15.5834C20.0301 14.9667 20.25 14.2417 20.25 13.5C20.2489 12.5058 19.8534 11.5526 19.1504 10.8496C18.4474 10.1466 17.4942 9.75114 16.5 9.75ZM16.5 16.5C15.9067 16.5 15.3266 16.3241 14.8333 15.9944C14.3399 15.6648 13.9554 15.1962 13.7284 14.648C13.5013 14.0999 13.4419 13.4967 13.5576 12.9147C13.6734 12.3328 13.9591 11.7982 14.3787 11.3787C14.7982 10.9591 15.3328 10.6734 15.9147 10.5576C16.4967 10.4419 17.0999 10.5013 17.6481 10.7284C18.1962 10.9554 18.6648 11.3399 18.9944 11.8333C19.3241 12.3266 19.5 12.9067 19.5 13.5C19.4991 14.2954 19.1827 15.0579 18.6203 15.6203C18.0579 16.1827 17.2954 16.4991 16.5 16.5ZM16.875 13.4059V11.625C16.875 11.5255 16.8355 11.4302 16.7652 11.3598C16.6948 11.2895 16.5995 11.25 16.5 11.25C16.4005 11.25 16.3052 11.2895 16.2348 11.3598C16.1645 11.4302 16.125 11.5255 16.125 11.625V13.5C16.1251 13.5618 16.1403 13.6226 16.1693 13.6771L16.7318 14.7266C16.7788 14.8143 16.8586 14.8798 16.9539 14.9086C17.0491 14.9374 17.1519 14.9272 17.2396 14.8802C17.3273 14.8333 17.3927 14.7534 17.4215 14.6582C17.4503 14.563 17.4402 14.4602 17.3932 14.3725L16.875 13.4059Z" fill="black"/>
</g>
<defs>
<filter id="filter0_d_57_7427" x="-1" y="0" width="26" height="26" filterUnits="userSpaceOnUse" color-interpolation-filters="sRGB">
<feFlood flood-opacity="0" result="BackgroundImageFix"/>
<feColorMatrix in="SourceAlpha" type="matrix" values="0 0 0 0 0 0 0 0 0 0 0 0 0 0 0 0 0 0 127 0" result="hardAlpha"/>
<feOffset dy="4"/>
<feGaussianBlur stdDeviation="2"/>
<feComposite in2="hardAlpha" operator="out"/>
<feColorMatrix type="matrix" values="0 0 0 0 0 0 0 0 0 0 0 0 0 0 0 0 0 0 0.25 0"/>
<feBlend mode="normal" in2="BackgroundImageFix" result="effect1_dropShadow_57_7427"/>
<feBlend mode="normal" in="SourceGraphic" in2="effect1_dropShadow_57_7427" result="shape"/>
</filter>
</defs>
</svg>
